<?xml version="1.0" standalone="no"?>
<!DOCTYPE svg PUBLIC "-//W3C//DTD SVG 20010904//EN"
 "http://www.w3.org/TR/2001/REC-SVG-20010904/DTD/svg10.dtd">
<svg version="1.0" xmlns="http://www.w3.org/2000/svg"
 width="512.000000pt" height="512.000000pt" viewBox="0 0 512.000000 512.000000"
 preserveAspectRatio="xMidYMid meet">
<metadata>
Created by potrace 1.11, written by Peter Selinger 2001-2013
</metadata>
<g transform="translate(0.000000,512.000000) scale(0.100000,-0.100000)"
fill="#000000" stroke="none">
<path d="M1605 4955 c-142 -37 -261 -81 -344 -126 -271 -149 -469 -342 -597
-584 -51 -95 -65 -132 -94 -245 -12 -47 -26 -93 -31 -102 -5 -10 -9 -94 -9
-188 0 -180 -1 -174 61 -365 54 -164 223 -332 411 -406 179 -70 448 -68 630 5
223 90 388 252 468 458 64 164 50 321 -39 441 -55 75 -105 101 -193 102 -58 0
-72 -4 -110 -30 -54 -39 -89 -98 -86 -145 3 -38 21 -51 122 -86 42 -14 51 -23
68 -62 59 -131 14 -340 -94 -437 -66 -60 -129 -84 -250 -93 -224 -16 -371 28
-540 164 -121 97 -185 194 -224 339 -23 85 -27 120 -27 235 0 118 4 150 31
250 57 220 144 347 328 476 122 85 217 129 361 166 101 25 143 31 289 35 190
6 286 -4 416 -43 101 -30 167 -69 264 -154 141 -125 228 -280 281 -500 21 -90
26 -136 30 -321 6 -243 1 -290 -67 -579 -59 -256 -65 -273 -131 -358 -313
-407 -393 -526 -556 -826 -128 -236 -163 -330 -170 -456 -6 -108 18 -180 79
-235 119 -108 266 -107 410 2 55 43 153 175 205 277 82 162 219 559 304 881
34 127 72 257 85 289 13 33 24 63 24 68 0 5 28 66 61 136 34 70 81 169 105
219 24 51 68 135 98 185 29 51 74 134 98 183 145 292 335 526 465 575 74 28
185 31 230 7 68 -36 98 -147 115 -426 14 -246 5 -637 -21 -866 -45 -394 -102
-670 -192 -934 -27 -80 -51 -153 -53 -161 -8 -31 -88 -204 -147 -317 -84 -160
-193 -322 -304 -449 -106 -122 -327 -333 -433 -413 -137 -104 -198 -134 -285
-139 -112 -7 -142 18 -168 136 -21 101 33 309 119 455 54 92 176 278 202 307
12 14 42 50 66 80 41 52 199 205 329 320 33 29 97 77 143 107 76 49 122 99
122 131 0 23 -79 91 -120 103 -34 10 -46 10 -74 -4 -98 -46 -401 -349 -603
-603 -81 -101 -243 -344 -284 -426 -91 -180 -125 -431 -78 -571 28 -85 79
-165 139 -221 74 -69 97 -76 255 -76 125 0 144 2 228 31 325 107 606 346 917
778 95 133 205 303 277 433 38 66 169 362 205 463 97 268 189 594 208 735 5
41 19 134 32 205 18 109 22 179 25 430 3 176 0 314 -6 335 -5 19 -21 92 -35
162 -52 263 -158 440 -331 553 -108 71 -171 88 -320 89 -101 1 -142 -3 -181
-17 -60 -21 -179 -100 -243 -160 -118 -114 -282 -337 -392 -535 l-74 -133 -6
173 c-9 245 -26 400 -55 493 -14 44 -27 87 -29 96 -12 56 -109 245 -163 316
-103 135 -288 274 -442 331 -145 54 -195 62 -415 61 -178 0 -210 -3 -290 -24z
m904 -2491 c-10 -56 -69 -290 -123 -489 -14 -49 -44 -135 -68 -190 -82 -187
-146 -263 -233 -272 -41 -5 -44 -4 -51 22 -10 40 3 125 32 207 40 112 174 384
237 481 31 48 57 89 57 92 0 8 109 165 133 192 11 13 22 21 24 20 1 -2 -2 -30
-8 -63z"/>
</g>
</svg>
